Coordinates
version=1
nRows=13
nColumns=40
inDegrees=yes

Units are S.I. units (second, meters, Newtons, ...)
Angles are in degrees.

endheader
time	pelvis_tilt	pelvis_list	pelvis_rotation	pelvis_tx	pelvis_ty	pelvis_tz	hip_flexion_r	hip_adduction_r	hip_rotation_r	knee_angle_r	knee_angle_r_beta	ankle_angle_r	subtalar_angle_r	mtp_angle_r	hip_flexion_l	hip_adduction_l	hip_rotation_l	knee_angle_l	knee_angle_l_beta	ankle_angle_l	subtalar_angle_l	mtp_angle_l	lumbar_extension	lumbar_bending	lumbar_rotation	arm_flex_r	arm_add_r	arm_rot_r	elbow_flex_r	pro_sup_r	wrist_flex_r	wrist_dev_r	arm_flex_l	arm_add_l	arm_rot_l	elbow_flex_l	pro_sup_l	wrist_flex_l	wrist_dev_l
     22.58750000	     -5.28964746	     -5.29831118	      3.62407134	      1.07171044	      0.92359725	      0.44978736	      2.23833602	     -0.22309480	    -15.16219085	     22.10926517	     22.10926517	     15.50510767	     -0.35687753	     -7.63151616	     26.43919988	     -7.61235104	     -1.61739520	     26.17805311	     26.17805311	      7.89817261	    -14.43561365	      5.76725460	     -9.21099005	      3.95906490	      4.30686570	     19.90410411	    -13.72244709	      1.89331478	     70.96732457	     45.37390368	      0.00000000	      0.00000000	     -1.69580870	     -9.05464665	     -6.74139137	     30.32312083	     45.75830353	      0.00000000	      0.00000000
     22.60085714	     -5.17559110	     -5.19146447	      3.46445276	      1.07220475	      0.92424859	      0.44647792	      2.97223290	     -0.91637772	    -14.83557837	     24.42206703	     24.42206703	     15.13332895	     -1.05595440	     -8.33783867	     25.81592050	     -7.42257725	     -2.01736246	     26.18153989	     26.18153989	      8.33824669	    -14.24744238	      5.54088649	     -9.35027350	      3.85830150	      4.53977994	     18.84742756	    -14.10079073	      2.04261202	     69.73515016	     45.40454827	      0.00000000	      0.00000000	     -0.82486412	     -9.25059186	     -6.70789870	     31.02552184	     45.76898012	      0.00000000	      0.00000000
     22.61421429	     -5.12547723	     -5.10229250	      3.28131049	      1.07258378	      0.92470325	      0.44326833	      4.00266439	     -1.61137810	    -14.36482794	     27.08338043	     27.08338043	     14.51401449	     -2.04854155	     -9.29291234	     25.26856911	     -7.25449657	     -2.41256360	     26.18627143	     26.18627143	      8.76663717	    -14.02588584	      5.27490268	     -9.38053689	      3.76740498	      4.76774397	     17.82143131	    -14.39992145	      2.12114338	     68.12481631	     45.45037068	      0.00000000	      0.00000000	      0.00695115	     -9.47206883	     -6.65950068	     31.83860024	     45.77681127	      0.00000000	      0.00000000
     22.62757143	     -5.01738870	     -5.04518651	      3.11396311	      1.07286090	      0.92514840	      0.44012028	      5.15072308	     -2.28333851	    -13.85269867	     30.00502738	     30.00502738	     13.64204977	     -3.17219944	    -10.34855758	     24.68747177	     -7.11259708	     -2.73897296	     26.21861164	     26.21861164	      9.14229478	    -13.84008504	      5.02167950	     -9.48074495	      3.69113973	      4.85290553	     16.86710895	    -14.59275146	      2.16369662	     66.46763350	     45.49936440	      0.00000000	      0.00000000	      0.81451067	     -9.71899153	     -6.60850434	     32.66340614	     45.78394017	      0.00000000	      0.00000000
     22.64092857	     -5.02947360	     -5.05585847	      2.90173621	      1.07302323	      0.92530441	      0.43713069	      6.45333704	     -2.73086401	    -12.92161854	     32.62488234	     32.62488234	     10.69727540	     -6.13875784	    -16.05695861	     24.23512271	     -7.03817487	     -3.04832397	     26.22042776	     26.22042776	      9.51067289	    -13.73737103	      4.44644721	     -9.32907721	      3.69352110	      4.13338291	     17.42252651	    -13.70566811	      1.94995698	     61.06905374	     45.67575668	      0.00000000	      0.00000000	      0.39104488	    -10.45951021	     -5.68144106	     35.25432002	     45.67790342	      0.00000000	      0.00000000
     22.65428571	     -4.81209156	     -4.95838507	      2.76073436	      1.07307777	      0.92563043	      0.43388926	      7.85290241	     -3.55120679	    -12.53517006	     36.11047090	     36.11047090	      9.51856245	     -7.04421894	    -16.65185925	     23.56924035	     -6.80973441	     -3.24405289	     26.29275615	     26.29275615	      9.98078822	    -13.69544745	      4.21692484	     -9.62949941	      3.62921557	      4.01817808	     16.38647338	    -13.97097322	      2.09808763	     60.21492544	     45.69249955	      0.00000000	      0.00000000	      1.35117663	    -10.73864446	     -5.71557887	     35.85736280	     45.69986418	      0.00000000	      0.00000000
     22.66764286	     -4.90431110	     -4.88996982	      2.53685268	      1.07280949	      0.92545693	      0.43094735	      9.79751050	     -4.13071140	    -11.53628212	     39.63756817	     39.63756817	      7.03140041	     -9.70573326	    -19.19580459	     23.28437094	     -6.62285606	     -3.50808691	     26.37910522	     26.37910522	     10.26673717	    -13.80127460	      3.97781274	     -9.49748427	      3.56609287	      4.01082311	     15.74652544	    -14.03385819	      2.07409000	     57.10366044	     45.77952228	      0.00000000	      0.00000000	      1.91516695	    -11.20065246	     -5.19817622	     37.40537749	     45.67387294	      0.00000000	      0.00000000
     22.68100000	     -4.80651455	     -4.71942789	      2.34704410	      1.07254292	      0.92536847	      0.42790986	     11.68152791	     -5.00112451	    -10.96474739	     43.49016768	     43.49016768	      5.25177715	    -10.79683749	    -19.43043708	     22.81083772	     -6.32702489	     -3.76028487	     26.51973756	     26.51973756	     10.67430055	    -13.85958728	      3.77033478	     -9.62811525	      3.44107943	      3.89370229	     14.68403243	    -14.23018319	      2.13666849	     56.04675722	     45.80515643	      0.00000000	      0.00000000	      2.82305749	    -11.56754373	     -5.21179214	     38.00276873	     45.69449355	      0.00000000	      0.00000000
     22.69435714	     -4.63332165	     -4.60570310	      2.21286471	      1.07215015	      0.92532591	      0.42502151	     13.53920640	     -5.71175954	    -10.31780126	     47.25544886	     47.25544886	      3.23230837	    -12.06792456	    -19.31681409	     22.31123107	     -6.07768723	     -3.90108381	     26.71018534	     26.71018534	     11.09742852	    -13.94327217	      3.56179375	     -9.88449133	      3.36586649	      3.68967055	     13.66619914	    -14.44937075	      2.13454437	     54.87831284	     45.83855707	      0.00000000	      0.00000000	      3.87481738	    -11.94211865	     -5.20432358	     38.63118048	     45.71351285	      0.00000000	      0.00000000
     22.70771429	     -4.52993729	     -4.53604885	      2.04491154	      1.07166713	      0.92522125	      0.42238802	     15.51470075	     -6.26534033	     -9.56567270	     50.88416042	     50.88416042	      1.05885921	    -13.41610998	    -18.83642748	     21.88171425	     -5.89589337	     -4.07401870	     26.86498752	     26.86498752	     11.47297340	    -14.03906834	      3.39125097	    -10.01803744	      3.33836379	      3.55259688	     12.59249724	    -14.64069392	      2.08887647	     53.49494764	     45.88114080	      0.00000000	      0.00000000	      4.89044701	    -12.32014944	     -5.14947085	     39.26029035	     45.72684401	      0.00000000	      0.00000000
     22.72107143	     -4.44517413	     -4.49602087	      1.82787600	      1.07115355	      0.92514902	      0.42009684	     17.50782186	     -6.65775066	     -8.73507609	     54.28764427	     54.28764427	     -1.09413023	    -14.74757621	    -17.88897947	     21.47706144	     -5.78278994	     -4.28284680	     27.03521974	     27.03521974	     11.82112205	    -14.11211242	      3.23690003	    -10.10499308	      3.30671905	      3.44648709	     11.56351562	    -14.79746707	      1.97291069	     51.87209319	     45.93528465	      0.00000000	      0.00000000	      5.93957977	    -12.69948095	     -5.00774425	     39.89256583	     45.73165773	      0.00000000	      0.00000000
     22.73442857	     -4.31411607	     -4.66173822	      1.64661361	      1.07057627	      0.92528622	      0.41819524	     19.48522074	     -6.67337363	     -7.93361373	     57.62277135	     57.62277135	     -1.79183019	    -15.03514840	    -12.96044110	     21.02864309	     -5.93184182	     -4.47849855	     27.17082628	     27.17082628	     12.33177951	    -13.93389255	      3.15994960	    -10.15976999	      3.49526396	      3.02289273	     11.96421865	    -13.99410025	      0.34547162	     46.33500001	     46.17665388	      0.00000000	      0.00000000	      6.71086594	    -13.56561025	     -2.97343179	     40.63091596	     45.56468800	      0.00000000	      0.00000000
     22.74778571	     -4.09826225	     -4.64494279	      1.48843591	      1.07002092	      0.92556663	      0.41623211	     21.13053187	     -6.98953901	     -7.38855906	     60.28997650	     60.28997650	     -3.56019919	    -15.65124805	    -12.17929410	     20.43929626	     -5.85511127	     -4.67766622	     27.23667884	     27.23667884	     12.67695171	    -13.91737941	      3.02643299	    -10.44660956	      3.49643130	      2.65875639	     10.88075285	    -14.13592199	      0.29928931	     45.55791681	     46.19684113	      0.00000000	      0.00000000	      7.73980509	    -14.04980968	     -2.97632620	     41.10384560	     45.58568333	      0.00000000	      0.00000000
